<?xml version="1.0" encoding="UTF-8"?>
<svg xmlns="http://www.w3.org/2000/svg" version="1.1" viewBox="0 0 1024 512">
<title>Clipping</title>
  <rect fill="#f8f8f8" width="1024" height="512"/>
  <g fill="none" stroke-width="6">
    <path stroke="red" d="M0 128h1024"/>
    <path stroke="#000" d="M0 256h1024"/>
    <path stroke="red" d="M0 384h1024"/>
    <path stroke="#aaa" stroke-dasharray="16" d="M137 234c35-88 72-170 119-170 51 0 90 96 128 192s77 192 128 192 90-96 128-192S717 64 768 64c49 0 86 86 122 177"/>
    <path stroke="#000" d="M896 256c-26-74-45-115-64-128a40 40 0 0 0-21-6c-10 0-23 6-43 6s-33-6-43-6a40 40 0 0 0-21 6c-19 13-38 54-64 128s-45 115-64 128a40 40 0 0 1-21 6c-10 0-23-6-43-6s-33 6-43 6a40 40 0 0 1-21-6c-19-13-38-54-64-128s-45-115-64-128a40 40 0 0 0-21-6c-10 0-23 6-43 6s-33-6-43-6a40 40 0 0 0-21 6c-19 13-38 54-64 128"/>
  </g>
  <path d="M120 248h16v16h-16zM184 120h16v16h-16zM312 120h16v16h-16zM248 120h16v16h-16zM376 248h16v16h-16zM440 376h16v16h-16zM572 376h16v16h-16zM504 376h16v16h-16zM632 248h16v16h-16zM696 120h16v16h-16zM824 120h16v16h-16zM760 120h16v16h-16zM888 248h16v16h-16z"/>
</svg>
